<mxfile host="app.diagrams.net" modified="2023-08-15T13:14:25.965Z" agent="Mozilla/5.0 (Windows NT 10.0; Win64; x64) AppleWebKit/537.36 (KHTML, like Gecko) Chrome/114.0.0.0 Safari/537.36" version="21.6.8" etag="PAP9qPyySKhKGZhMFQ6s" type="github">
  <diagram name="PÃ¡gina-1" id="VY4-PPFw7Q6kQxQNBb_5">
    <mxGraphModel>
      <root>
        <mxCell id="0" />
        <mxCell id="1" parent="0" />
      </root>
    </mxGraphModel>
  </diagram>
</mxfile>
